<mxfile host="app.diagrams.net" modified="2024-05-20T18:33:05.241Z" agent="Mozilla/5.0 (Macintosh; Intel Mac OS X 10.15; rv:125.0) Gecko/20100101 Firefox/125.0" etag="lgxT1swviS2-C7XuXqwL" version="24.4.4" type="github">
  <diagram name="Page-1" id="aaaa8250-4180-3840-79b5-4cada1eebb92">
    <mxGraphModel dx="2726" dy="1683" grid="1" gridSize="10" guides="1" tooltips="1" connect="1" arrows="1" fold="1" page="1" pageScale="1" pageWidth="850" pageHeight="1100" background="none" math="0" shadow="0">
      <root>
        <mxCell id="0" />
        <mxCell id="1" parent="0" />
        <mxCell id="d5ac148becb70bc-7" value="" style="verticalLabelPosition=bottom;html=1;verticalAlign=top;strokeWidth=1;dashed=0;shape=mxgraph.aws3d.flatDoubleEdge;fillColor=#000000;aspect=fixed;rounded=1;shadow=0;comic=0;fontFamily=Verdana;fontSize=12;flipV=1;" parent="1" vertex="1">
          <mxGeometry x="1440" y="1610" width="251.44" height="143.37" as="geometry" />
        </mxCell>
        <mxCell id="1a8abee3a6cfdf20-38" value="" style="verticalLabelPosition=bottom;html=1;verticalAlign=top;strokeWidth=1;dashed=0;shape=mxgraph.aws3d.flatDoubleEdge;fillColor=#000000;aspect=fixed;rounded=1;shadow=0;comic=0;fontFamily=Verdana;fontSize=12;flipV=1;" parent="1" vertex="1">
          <mxGeometry x="850" y="1260" width="278.06" height="158.57" as="geometry" />
        </mxCell>
        <mxCell id="1a8abee3a6cfdf20-28" value="" style="verticalLabelPosition=bottom;html=1;verticalAlign=top;strokeWidth=1;dashed=0;shape=mxgraph.aws3d.flatDoubleEdge;fillColor=#000000;aspect=fixed;rounded=1;shadow=0;comic=0;fontFamily=Verdana;fontSize=12;flipV=1;" parent="1" vertex="1">
          <mxGeometry x="262" y="900" width="299.84" height="171" as="geometry" />
        </mxCell>
        <mxCell id="1a8abee3a6cfdf20-3" value="" style="edgeStyle=isometricEdgeStyle;endArrow=none;html=1;labelBackgroundColor=none;strokeWidth=5;fontFamily=Verdana;fontSize=12" parent="1" edge="1">
          <mxGeometry width="50" height="100" relative="1" as="geometry">
            <mxPoint x="352" y="1308" as="sourcePoint" />
            <mxPoint x="262" y="1068" as="targetPoint" />
            <Array as="points">
              <mxPoint x="302" y="1208" />
            </Array>
          </mxGeometry>
        </mxCell>
        <mxCell id="1a8abee3a6cfdf20-5" value="" style="edgeStyle=isometricEdgeStyle;endArrow=none;html=1;labelBackgroundColor=none;strokeColor=#000000;strokeWidth=5;fontFamily=Verdana;fontSize=12" parent="1" edge="1">
          <mxGeometry width="50" height="100" relative="1" as="geometry">
            <mxPoint x="422" y="1338" as="sourcePoint" />
            <mxPoint x="972" y="1358" as="targetPoint" />
            <Array as="points">
              <mxPoint x="682" y="1348" />
            </Array>
          </mxGeometry>
        </mxCell>
        <mxCell id="1a8abee3a6cfdf20-8" value="" style="verticalLabelPosition=bottom;html=1;verticalAlign=top;strokeWidth=1;dashed=0;shape=mxgraph.aws3d.cloudfront;fillColor=#ECECEC;strokeColor=#5E5E5E;aspect=fixed;rounded=1;shadow=0;comic=0;fontSize=12" parent="1" vertex="1">
          <mxGeometry x="571" y="738.1" width="103.8" height="169.79999999999998" as="geometry" />
        </mxCell>
        <mxCell id="1a8abee3a6cfdf20-25" value="" style="verticalLabelPosition=bottom;html=1;verticalAlign=top;strokeWidth=1;dashed=0;shape=mxgraph.aws3d.arrowhead;aspect=fixed;rounded=1;shadow=0;comic=0;fillColor=none;fontFamily=Verdana;fontSize=12;fontColor=#000000;flipV=1;" parent="1" vertex="1">
          <mxGeometry x="341" y="1291" width="39" height="23" as="geometry" />
        </mxCell>
        <mxCell id="1a8abee3a6cfdf20-27" value="" style="verticalLabelPosition=bottom;html=1;verticalAlign=top;strokeWidth=1;dashed=0;shape=mxgraph.aws3d.arrowhead;aspect=fixed;rounded=1;shadow=0;comic=0;fillColor=none;fontFamily=Verdana;fontSize=12;fontColor=#000000;flipV=1;" parent="1" vertex="1">
          <mxGeometry x="401" y="1328" width="39" height="23" as="geometry" />
        </mxCell>
        <mxCell id="1a8abee3a6cfdf20-1" value="" style="verticalLabelPosition=bottom;html=1;verticalAlign=top;strokeWidth=1;dashed=0;shape=mxgraph.aws3d.secureConnection;fillColor=#000000;strokeColor=#ffffff;aspect=fixed;rounded=1;shadow=0;comic=0;fontSize=12" parent="1" vertex="1">
          <mxGeometry x="290" y="1019.22" width="56.99999999999999" height="34" as="geometry" />
        </mxCell>
        <mxCell id="1a8abee3a6cfdf20-29" value="" style="verticalLabelPosition=bottom;html=1;verticalAlign=top;strokeWidth=1;dashed=0;shape=mxgraph.aws3d.dashedEdgeDouble;fillColor=#000000;aspect=fixed;rounded=1;shadow=0;comic=0;fontFamily=Verdana;fontSize=12;flipV=1;" parent="1" vertex="1">
          <mxGeometry x="434" y="920" width="87" height="50" as="geometry" />
        </mxCell>
        <mxCell id="1a8abee3a6cfdf20-30" value="" style="verticalLabelPosition=bottom;html=1;verticalAlign=top;strokeWidth=1;dashed=0;shape=mxgraph.aws3d.dashedEdgeDouble;fillColor=#000000;aspect=fixed;rounded=1;shadow=0;comic=0;fontFamily=Verdana;fontSize=12;flipV=1;" parent="1" vertex="1">
          <mxGeometry x="689" y="744" width="87" height="50" as="geometry" />
        </mxCell>
        <mxCell id="d5ac148becb70bc-8" value="" style="verticalLabelPosition=bottom;html=1;verticalAlign=top;strokeWidth=1;dashed=0;shape=mxgraph.aws3d.dashedArrowlessEdge;aspect=fixed;rounded=1;shadow=0;comic=0;fontFamily=Verdana;fontSize=12" parent="1" vertex="1">
          <mxGeometry x="840" y="564" width="1432" height="816" as="geometry" />
        </mxCell>
        <mxCell id="d5ac148becb70bc-9" value="" style="verticalLabelPosition=bottom;html=1;verticalAlign=top;strokeWidth=1;dashed=0;shape=mxgraph.aws3d.dashedArrowlessEdge;aspect=fixed;rounded=1;shadow=0;comic=0;fontFamily=Verdana;fontSize=12" parent="1" vertex="1">
          <mxGeometry x="592" y="705" width="1432" height="816" as="geometry" />
        </mxCell>
        <mxCell id="d5ac148becb70bc-10" value="" style="verticalLabelPosition=bottom;html=1;verticalAlign=top;strokeWidth=1;dashed=0;shape=mxgraph.aws3d.dashedArrowlessEdge;fillColor=#000000;aspect=fixed;rounded=1;shadow=0;comic=0;fontFamily=Verdana;fontSize=12;fontColor=#000000;flipV=1;" parent="1" vertex="1">
          <mxGeometry x="592" y="564" width="248" height="141" as="geometry" />
        </mxCell>
        <mxCell id="d5ac148becb70bc-12" value="" style="verticalLabelPosition=bottom;html=1;verticalAlign=top;strokeWidth=1;dashed=0;shape=mxgraph.aws3d.dashedArrowlessEdge;aspect=fixed;rounded=1;shadow=0;comic=0;fontFamily=Verdana;fontSize=12;flipV=1;" parent="1" vertex="1">
          <mxGeometry x="2023" y="1378" width="249" height="142" as="geometry" />
        </mxCell>
        <mxCell id="1a8abee3a6cfdf20-2" value="" style="verticalLabelPosition=bottom;html=1;verticalAlign=top;strokeWidth=1;dashed=0;shape=mxgraph.aws3d.secureConnection;fillColor=#000000;strokeColor=#ffffff;aspect=fixed;rounded=1;shadow=0;comic=0;fontSize=12" parent="1" vertex="1">
          <mxGeometry x="911" y="1358" width="56.99999999999999" height="34" as="geometry" />
        </mxCell>
        <mxCell id="d5ac148becb70bc-14" value="" style="edgeStyle=isometricEdgeStyle;endArrow=none;html=1;labelBackgroundColor=none;strokeWidth=5;fontFamily=Verdana;fontSize=12" parent="1" edge="1">
          <mxGeometry width="50" height="100" relative="1" as="geometry">
            <mxPoint x="462" y="1368" as="sourcePoint" />
            <mxPoint x="1602" y="1668" as="targetPoint" />
            <Array as="points">
              <mxPoint x="902" y="1558" />
            </Array>
          </mxGeometry>
        </mxCell>
        <mxCell id="d5ac148becb70bc-15" value="" style="verticalLabelPosition=bottom;html=1;verticalAlign=top;strokeWidth=1;dashed=0;shape=mxgraph.aws3d.arrowhead;aspect=fixed;rounded=1;shadow=0;comic=0;fillColor=none;fontFamily=Verdana;fontSize=12;fontColor=#000000;flipV=1;" parent="1" vertex="1">
          <mxGeometry x="443" y="1356" width="39" height="23" as="geometry" />
        </mxCell>
        <mxCell id="d5ac148becb70bc-16" value="" style="verticalLabelPosition=bottom;html=1;verticalAlign=top;strokeWidth=1;dashed=0;shape=mxgraph.aws3d.secureConnection;fillColor=#000000;strokeColor=#ffffff;aspect=fixed;rounded=1;shadow=0;comic=0;fontSize=12" parent="1" vertex="1">
          <mxGeometry x="1550" y="1668" width="56.99999999999999" height="34" as="geometry" />
        </mxCell>
        <mxCell id="MvEuv22E8uVHr46733gI-4" value="" style="verticalLabelPosition=bottom;html=1;verticalAlign=top;strokeWidth=1;align=center;outlineConnect=0;dashed=0;outlineConnect=0;shape=mxgraph.aws3d.end_user;strokeColor=none;fillColor=#777777;aspect=fixed;" vertex="1" parent="1">
          <mxGeometry x="885.17" y="490" width="49" height="100.46" as="geometry" />
        </mxCell>
        <mxCell id="MvEuv22E8uVHr46733gI-10" value="" style="verticalLabelPosition=bottom;html=1;verticalAlign=top;strokeWidth=1;align=center;outlineConnect=0;dashed=0;outlineConnect=0;shape=mxgraph.aws3d.end_user;strokeColor=none;fillColor=#777777;aspect=fixed;" vertex="1" parent="1">
          <mxGeometry x="960" y="531.27" width="49" height="100.46" as="geometry" />
        </mxCell>
        <mxCell id="MvEuv22E8uVHr46733gI-11" value="" style="verticalLabelPosition=bottom;html=1;verticalAlign=top;strokeWidth=1;align=center;outlineConnect=0;dashed=0;outlineConnect=0;shape=mxgraph.aws3d.end_user;strokeColor=none;fillColor=#777777;aspect=fixed;" vertex="1" parent="1">
          <mxGeometry x="1025" y="564" width="49" height="100.46" as="geometry" />
        </mxCell>
        <mxCell id="MvEuv22E8uVHr46733gI-12" value="" style="verticalLabelPosition=bottom;html=1;verticalAlign=top;strokeWidth=1;align=center;outlineConnect=0;dashed=0;outlineConnect=0;shape=mxgraph.aws3d.end_user;strokeColor=none;fillColor=#777777;aspect=fixed;" vertex="1" parent="1">
          <mxGeometry x="1094.17" y="608.34" width="49" height="100.46" as="geometry" />
        </mxCell>
        <mxCell id="MvEuv22E8uVHr46733gI-13" value="" style="verticalLabelPosition=bottom;html=1;verticalAlign=top;strokeWidth=1;align=center;outlineConnect=0;dashed=0;outlineConnect=0;shape=mxgraph.aws3d.end_user;strokeColor=none;fillColor=#777777;aspect=fixed;" vertex="1" parent="1">
          <mxGeometry x="1169" y="649.61" width="49" height="100.46" as="geometry" />
        </mxCell>
        <mxCell id="MvEuv22E8uVHr46733gI-14" value="" style="verticalLabelPosition=bottom;html=1;verticalAlign=top;strokeWidth=1;align=center;outlineConnect=0;dashed=0;outlineConnect=0;shape=mxgraph.aws3d.end_user;strokeColor=none;fillColor=#777777;aspect=fixed;" vertex="1" parent="1">
          <mxGeometry x="1234" y="682.34" width="49" height="100.46" as="geometry" />
        </mxCell>
        <mxCell id="MvEuv22E8uVHr46733gI-17" value="" style="verticalLabelPosition=bottom;html=1;verticalAlign=top;strokeWidth=1;dashed=0;shape=mxgraph.aws3d.arrowSW;fillColor=#000000;aspect=fixed;rounded=1;shadow=0;comic=0;fontFamily=Verdana;fontSize=12" vertex="1" parent="1">
          <mxGeometry x="840" y="631.73" width="105" height="59.23" as="geometry" />
        </mxCell>
        <mxCell id="MvEuv22E8uVHr46733gI-19" value="" style="verticalLabelPosition=bottom;html=1;verticalAlign=top;strokeWidth=1;dashed=0;shape=mxgraph.aws3d.arrowSW;fillColor=#000000;aspect=fixed;rounded=1;shadow=0;comic=0;fontFamily=Verdana;fontSize=12" vertex="1" parent="1">
          <mxGeometry x="1010" y="723.57" width="104" height="58.67" as="geometry" />
        </mxCell>
        <mxCell id="MvEuv22E8uVHr46733gI-20" value="&lt;font style=&quot;font-size: 30px;&quot;&gt;SIP Register&lt;/font&gt;" style="text;html=1;align=center;verticalAlign=middle;resizable=0;points=[];autosize=1;strokeColor=none;fillColor=none;rotation=-30;fontSize=20;" vertex="1" parent="1">
          <mxGeometry x="723" y="633.34" width="190" height="50" as="geometry" />
        </mxCell>
        <mxCell id="MvEuv22E8uVHr46733gI-26" value="" style="verticalLabelPosition=bottom;verticalAlign=top;html=1;shadow=0;dashed=0;strokeWidth=1;shape=mxgraph.ios.iPhone;bgStyle=bgGreen;fillColor=#aaaaaa;sketch=0;" vertex="1" parent="1">
          <mxGeometry x="1627.5900000000001" y="652.8" width="70" height="130" as="geometry" />
        </mxCell>
        <mxCell id="MvEuv22E8uVHr46733gI-30" value="" style="image;aspect=fixed;perimeter=ellipsePerimeter;html=1;align=center;shadow=0;dashed=0;spacingTop=3;image=img/lib/active_directory/database_server.svg;" vertex="1" parent="1">
          <mxGeometry x="187.8" y="1328" width="213.2" height="260" as="geometry" />
        </mxCell>
        <mxCell id="MvEuv22E8uVHr46733gI-33" value="" style="verticalLabelPosition=bottom;html=1;verticalAlign=top;strokeWidth=1;align=center;outlineConnect=0;dashed=0;outlineConnect=0;shape=mxgraph.aws3d.end_user;strokeColor=none;fillColor=#777777;aspect=fixed;" vertex="1" parent="1">
          <mxGeometry x="1850" y="1031.2" width="49" height="100.46" as="geometry" />
        </mxCell>
        <mxCell id="MvEuv22E8uVHr46733gI-34" value="" style="verticalLabelPosition=bottom;html=1;verticalAlign=top;strokeWidth=1;align=center;outlineConnect=0;dashed=0;outlineConnect=0;shape=mxgraph.aws3d.end_user;strokeColor=none;fillColor=#777777;aspect=fixed;" vertex="1" parent="1">
          <mxGeometry x="1924.83" y="1072.47" width="49" height="100.46" as="geometry" />
        </mxCell>
        <mxCell id="MvEuv22E8uVHr46733gI-35" value="" style="verticalLabelPosition=bottom;html=1;verticalAlign=top;strokeWidth=1;align=center;outlineConnect=0;dashed=0;outlineConnect=0;shape=mxgraph.aws3d.end_user;strokeColor=none;fillColor=#777777;aspect=fixed;" vertex="1" parent="1">
          <mxGeometry x="1989.83" y="1105.2" width="49" height="100.46" as="geometry" />
        </mxCell>
        <mxCell id="MvEuv22E8uVHr46733gI-36" value="" style="verticalLabelPosition=bottom;html=1;verticalAlign=top;strokeWidth=1;align=center;outlineConnect=0;dashed=0;outlineConnect=0;shape=mxgraph.aws3d.end_user;strokeColor=none;fillColor=#777777;aspect=fixed;" vertex="1" parent="1">
          <mxGeometry x="2059" y="1149.54" width="49" height="100.46" as="geometry" />
        </mxCell>
        <mxCell id="MvEuv22E8uVHr46733gI-37" value="" style="verticalLabelPosition=bottom;html=1;verticalAlign=top;strokeWidth=1;align=center;outlineConnect=0;dashed=0;outlineConnect=0;shape=mxgraph.aws3d.end_user;strokeColor=none;fillColor=#777777;aspect=fixed;" vertex="1" parent="1">
          <mxGeometry x="2133.83" y="1190.81" width="49" height="100.46" as="geometry" />
        </mxCell>
        <mxCell id="MvEuv22E8uVHr46733gI-38" value="" style="verticalLabelPosition=bottom;html=1;verticalAlign=top;strokeWidth=1;align=center;outlineConnect=0;dashed=0;outlineConnect=0;shape=mxgraph.aws3d.end_user;strokeColor=none;fillColor=#777777;aspect=fixed;" vertex="1" parent="1">
          <mxGeometry x="2198.83" y="1223.54" width="49" height="100.46" as="geometry" />
        </mxCell>
        <mxCell id="MvEuv22E8uVHr46733gI-39" value="" style="verticalLabelPosition=bottom;html=1;verticalAlign=top;strokeWidth=1;align=center;outlineConnect=0;dashed=0;outlineConnect=0;shape=mxgraph.aws3d.end_user;strokeColor=none;fillColor=#777777;aspect=fixed;" vertex="1" parent="1">
          <mxGeometry x="1369.59" y="761" width="49" height="100.46" as="geometry" />
        </mxCell>
        <mxCell id="MvEuv22E8uVHr46733gI-40" value="" style="verticalLabelPosition=bottom;html=1;verticalAlign=top;strokeWidth=1;align=center;outlineConnect=0;dashed=0;outlineConnect=0;shape=mxgraph.aws3d.end_user;strokeColor=none;fillColor=#777777;aspect=fixed;" vertex="1" parent="1">
          <mxGeometry x="1444.4199999999998" y="802.27" width="49" height="100.46" as="geometry" />
        </mxCell>
        <mxCell id="MvEuv22E8uVHr46733gI-41" value="" style="verticalLabelPosition=bottom;html=1;verticalAlign=top;strokeWidth=1;align=center;outlineConnect=0;dashed=0;outlineConnect=0;shape=mxgraph.aws3d.end_user;strokeColor=none;fillColor=#777777;aspect=fixed;" vertex="1" parent="1">
          <mxGeometry x="1509.4199999999998" y="835" width="49" height="100.46" as="geometry" />
        </mxCell>
        <mxCell id="MvEuv22E8uVHr46733gI-42" value="" style="verticalLabelPosition=bottom;html=1;verticalAlign=top;strokeWidth=1;align=center;outlineConnect=0;dashed=0;outlineConnect=0;shape=mxgraph.aws3d.end_user;strokeColor=none;fillColor=#777777;aspect=fixed;" vertex="1" parent="1">
          <mxGeometry x="1578.59" y="879.3399999999999" width="49" height="100.46" as="geometry" />
        </mxCell>
        <mxCell id="MvEuv22E8uVHr46733gI-43" value="" style="verticalLabelPosition=bottom;html=1;verticalAlign=top;strokeWidth=1;align=center;outlineConnect=0;dashed=0;outlineConnect=0;shape=mxgraph.aws3d.end_user;strokeColor=none;fillColor=#777777;aspect=fixed;" vertex="1" parent="1">
          <mxGeometry x="1653.4199999999998" y="920.6099999999999" width="49" height="100.46" as="geometry" />
        </mxCell>
        <mxCell id="MvEuv22E8uVHr46733gI-44" value="" style="verticalLabelPosition=bottom;html=1;verticalAlign=top;strokeWidth=1;align=center;outlineConnect=0;dashed=0;outlineConnect=0;shape=mxgraph.aws3d.end_user;strokeColor=none;fillColor=#777777;aspect=fixed;" vertex="1" parent="1">
          <mxGeometry x="1718.4199999999998" y="953.3399999999999" width="49" height="100.46" as="geometry" />
        </mxCell>
        <mxCell id="MvEuv22E8uVHr46733gI-45" value="SDK" style="text;html=1;align=center;verticalAlign=middle;resizable=0;points=[];autosize=1;strokeColor=none;fillColor=none;fontSize=40;rotation=-2;" vertex="1" parent="1">
          <mxGeometry x="1613.92" y="586.0000000000001" width="110" height="60" as="geometry" />
        </mxCell>
        <mxCell id="MvEuv22E8uVHr46733gI-46" value="PROXY2" style="text;html=1;align=center;verticalAlign=middle;resizable=0;points=[];autosize=1;strokeColor=none;fillColor=none;fontSize=30;" vertex="1" parent="1">
          <mxGeometry x="960" y="1065.1999999999998" width="150" height="50" as="geometry" />
        </mxCell>
        <mxCell id="MvEuv22E8uVHr46733gI-49" value="" style="verticalLabelPosition=bottom;html=1;verticalAlign=top;strokeWidth=1;dashed=0;shape=mxgraph.aws3d.arrowSW;fillColor=#000000;aspect=fixed;rounded=1;shadow=0;comic=0;fontFamily=Verdana;fontSize=12" vertex="1" parent="1">
          <mxGeometry x="1256" y="870" width="104" height="58.67" as="geometry" />
        </mxCell>
        <mxCell id="MvEuv22E8uVHr46733gI-50" value="" style="verticalLabelPosition=bottom;html=1;verticalAlign=top;strokeWidth=1;dashed=0;shape=mxgraph.aws3d.arrowSW;fillColor=#000000;aspect=fixed;rounded=1;shadow=0;comic=0;fontFamily=Verdana;fontSize=12" vertex="1" parent="1">
          <mxGeometry x="1493.42" y="994.55" width="104" height="58.67" as="geometry" />
        </mxCell>
        <mxCell id="MvEuv22E8uVHr46733gI-51" value="" style="verticalLabelPosition=bottom;html=1;verticalAlign=top;strokeWidth=1;dashed=0;shape=mxgraph.aws3d.arrowSW;fillColor=#000000;aspect=fixed;rounded=1;shadow=0;comic=0;fontFamily=Verdana;fontSize=12" vertex="1" parent="1">
          <mxGeometry x="1800" y="1156.99" width="104" height="58.67" as="geometry" />
        </mxCell>
        <mxCell id="MvEuv22E8uVHr46733gI-52" value="" style="verticalLabelPosition=bottom;html=1;verticalAlign=top;strokeWidth=1;dashed=0;shape=mxgraph.aws3d.arrowSW;fillColor=#000000;aspect=fixed;rounded=1;shadow=0;comic=0;fontFamily=Verdana;fontSize=12" vertex="1" parent="1">
          <mxGeometry x="1936" y="1259.33" width="104" height="58.67" as="geometry" />
        </mxCell>
        <mxCell id="MvEuv22E8uVHr46733gI-53" value="&lt;font style=&quot;font-size: 30px;&quot;&gt;SIP Register&lt;/font&gt;" style="text;html=1;align=center;verticalAlign=middle;resizable=0;points=[];autosize=1;strokeColor=none;fillColor=none;rotation=-30;fontSize=20;" vertex="1" parent="1">
          <mxGeometry x="889.5" y="729" width="190" height="50" as="geometry" />
        </mxCell>
        <mxCell id="MvEuv22E8uVHr46733gI-54" value="&lt;font style=&quot;font-size: 30px;&quot;&gt;SIP Register&lt;/font&gt;" style="text;html=1;align=center;verticalAlign=middle;resizable=0;points=[];autosize=1;strokeColor=none;fillColor=none;rotation=-30;fontSize=20;" vertex="1" parent="1">
          <mxGeometry x="1140" y="871" width="190" height="50" as="geometry" />
        </mxCell>
        <mxCell id="MvEuv22E8uVHr46733gI-55" value="&lt;font style=&quot;font-size: 30px;&quot;&gt;SIP Register&lt;/font&gt;" style="text;html=1;align=center;verticalAlign=middle;resizable=0;points=[];autosize=1;strokeColor=none;fillColor=none;rotation=-30;fontSize=20;" vertex="1" parent="1">
          <mxGeometry x="1369.59" y="994.55" width="190" height="50" as="geometry" />
        </mxCell>
        <mxCell id="MvEuv22E8uVHr46733gI-56" value="&lt;font style=&quot;font-size: 30px;&quot;&gt;SIP Register&lt;/font&gt;" style="text;html=1;align=center;verticalAlign=middle;resizable=0;points=[];autosize=1;strokeColor=none;fillColor=none;rotation=-30;fontSize=20;" vertex="1" parent="1">
          <mxGeometry x="1670" y="1161.99" width="190" height="50" as="geometry" />
        </mxCell>
        <mxCell id="MvEuv22E8uVHr46733gI-57" value="&lt;font style=&quot;font-size: 30px;&quot;&gt;SIP Register&lt;/font&gt;" style="text;html=1;align=center;verticalAlign=middle;resizable=0;points=[];autosize=1;strokeColor=none;fillColor=none;rotation=-30;fontSize=20;" vertex="1" parent="1">
          <mxGeometry x="1820" y="1259.33" width="190" height="50" as="geometry" />
        </mxCell>
        <mxCell id="MvEuv22E8uVHr46733gI-61" value="" style="verticalLabelPosition=bottom;html=1;verticalAlign=top;strokeWidth=1;dashed=0;shape=mxgraph.aws3d.cloudfront;fillColor=#ECECEC;strokeColor=#5E5E5E;aspect=fixed;rounded=1;shadow=0;comic=0;fontSize=12" vertex="1" parent="1">
          <mxGeometry x="1090" y="1090.2" width="103.8" height="169.79999999999998" as="geometry" />
        </mxCell>
        <mxCell id="MvEuv22E8uVHr46733gI-63" value="&lt;div&gt;RTPengines&lt;/div&gt;" style="text;html=1;align=center;verticalAlign=middle;resizable=0;points=[];autosize=1;strokeColor=none;fillColor=none;fontSize=30;rotation=30;" vertex="1" parent="1">
          <mxGeometry x="650" y="928.6699999999998" width="190" height="50" as="geometry" />
        </mxCell>
        <mxCell id="MvEuv22E8uVHr46733gI-69" value="" style="verticalLabelPosition=bottom;html=1;verticalAlign=top;strokeWidth=1;dashed=0;shape=mxgraph.aws3d.cloudfront;fillColor=#ECECEC;strokeColor=#5E5E5E;aspect=fixed;rounded=1;shadow=0;comic=0;fontSize=12" vertex="1" parent="1">
          <mxGeometry x="1665.65" y="1440.83" width="103.8" height="169.79999999999998" as="geometry" />
        </mxCell>
        <mxCell id="MvEuv22E8uVHr46733gI-72" value="PROXY1" style="text;html=1;align=center;verticalAlign=middle;resizable=0;points=[];autosize=1;strokeColor=none;fillColor=none;fontSize=30;" vertex="1" parent="1">
          <mxGeometry x="430" y="690.9599999999998" width="150" height="50" as="geometry" />
        </mxCell>
        <mxCell id="MvEuv22E8uVHr46733gI-73" value="PROXY3" style="text;html=1;align=center;verticalAlign=middle;resizable=0;points=[];autosize=1;strokeColor=none;fillColor=none;fontSize=30;" vertex="1" parent="1">
          <mxGeometry x="1538" y="1391.9999999999998" width="150" height="50" as="geometry" />
        </mxCell>
        <mxCell id="MvEuv22E8uVHr46733gI-74" value="" style="image;points=[];aspect=fixed;html=1;align=center;shadow=0;dashed=0;image=img/lib/allied_telesis/storage/Datacenter_Server_Half_Rack_ToR.svg;" vertex="1" parent="1">
          <mxGeometry x="720" y="827.9300000000001" width="88.2" height="114.6" as="geometry" />
        </mxCell>
        <mxCell id="MvEuv22E8uVHr46733gI-75" value="" style="image;points=[];aspect=fixed;html=1;align=center;shadow=0;dashed=0;image=img/lib/allied_telesis/storage/Datacenter_Server_Half_Rack_ToR.svg;" vertex="1" parent="1">
          <mxGeometry x="1263.8" y="1183.26" width="88.2" height="114.6" as="geometry" />
        </mxCell>
        <mxCell id="MvEuv22E8uVHr46733gI-76" value="&lt;div&gt;RTPengines&lt;/div&gt;" style="text;html=1;align=center;verticalAlign=middle;resizable=0;points=[];autosize=1;strokeColor=none;fillColor=none;fontSize=30;rotation=30;" vertex="1" parent="1">
          <mxGeometry x="1193.8" y="1283.9999999999998" width="190" height="50" as="geometry" />
        </mxCell>
        <mxCell id="MvEuv22E8uVHr46733gI-77" value="" style="image;points=[];aspect=fixed;html=1;align=center;shadow=0;dashed=0;image=img/lib/allied_telesis/storage/Datacenter_Server_Half_Rack_ToR.svg;" vertex="1" parent="1">
          <mxGeometry x="1809" y="1530" width="88.2" height="114.6" as="geometry" />
        </mxCell>
        <mxCell id="MvEuv22E8uVHr46733gI-78" value="&lt;div&gt;RTPengines&lt;/div&gt;" style="text;html=1;align=center;verticalAlign=middle;resizable=0;points=[];autosize=1;strokeColor=none;fillColor=none;fontSize=30;rotation=30;" vertex="1" parent="1">
          <mxGeometry x="1739" y="1630.7399999999998" width="190" height="50" as="geometry" />
        </mxCell>
        <mxCell id="MvEuv22E8uVHr46733gI-79" value="&lt;b&gt;Name Authority Pointer&lt;/b&gt; (&lt;b&gt;NAPTR&lt;/b&gt;)&amp;nbsp; Dynamic Resource allocation on Client side " style="text;html=1;align=center;verticalAlign=middle;resizable=0;points=[];autosize=1;strokeColor=none;fillColor=none;fontSize=40;rotation=30;" vertex="1" parent="1">
          <mxGeometry x="850" y="779.0000000000002" width="1440" height="60" as="geometry" />
        </mxCell>
        <mxCell id="MvEuv22E8uVHr46733gI-81" value="FIREAWALL" style="text;html=1;align=center;verticalAlign=middle;resizable=0;points=[];autosize=1;strokeColor=none;fillColor=none;fontSize=30;rotation=30;fontColor=#FF3333;" vertex="1" parent="1">
          <mxGeometry x="1388.5900000000001" y="1720" width="190" height="50" as="geometry" />
        </mxCell>
        <mxCell id="MvEuv22E8uVHr46733gI-83" value="FIREAWALL" style="text;html=1;align=center;verticalAlign=middle;resizable=0;points=[];autosize=1;strokeColor=none;fillColor=none;fontSize=30;rotation=30;fontColor=#FF3333;" vertex="1" parent="1">
          <mxGeometry x="760.0000000000001" y="1387.6999999999998" width="190" height="50" as="geometry" />
        </mxCell>
        <mxCell id="MvEuv22E8uVHr46733gI-84" value="FIREAWALL" style="text;html=1;align=center;verticalAlign=middle;resizable=0;points=[];autosize=1;strokeColor=none;fillColor=none;fontSize=30;rotation=30;fontColor=#FF3333;" vertex="1" parent="1">
          <mxGeometry x="180.0000000000001" y="1049.4399999999996" width="190" height="50" as="geometry" />
        </mxCell>
        <mxCell id="MvEuv22E8uVHr46733gI-85" value="SBC" style="text;html=1;align=center;verticalAlign=middle;resizable=0;points=[];autosize=1;strokeColor=none;fillColor=none;fontSize=50;" vertex="1" parent="1">
          <mxGeometry x="280" y="1598" width="130" height="70" as="geometry" />
        </mxCell>
        <mxCell id="MvEuv22E8uVHr46733gI-89" value="ZONE1" style="text;html=1;align=center;verticalAlign=middle;resizable=0;points=[];autosize=1;strokeColor=none;fillColor=none;rotation=-30;fontSize=20;" vertex="1" parent="1">
          <mxGeometry x="332" y="897.73" width="90" height="40" as="geometry" />
        </mxCell>
        <mxCell id="MvEuv22E8uVHr46733gI-90" value="ZONE3" style="text;html=1;align=center;verticalAlign=middle;resizable=0;points=[];autosize=1;strokeColor=none;fillColor=none;rotation=-30;fontSize=20;" vertex="1" parent="1">
          <mxGeometry x="1493.92" y="1592" width="90" height="40" as="geometry" />
        </mxCell>
        <mxCell id="MvEuv22E8uVHr46733gI-91" value="ZONE2" style="text;html=1;align=center;verticalAlign=middle;resizable=0;points=[];autosize=1;strokeColor=none;fillColor=none;rotation=-30;fontSize=20;" vertex="1" parent="1">
          <mxGeometry x="911.1700000000001" y="1257" width="90" height="40" as="geometry" />
        </mxCell>
        <mxCell id="MvEuv22E8uVHr46733gI-92" value="&lt;div&gt;ZONE - is&amp;nbsp; a redundand cluster,&lt;br&gt;each can serve all users alone&lt;br&gt;&lt;/div&gt;" style="text;html=1;align=center;verticalAlign=middle;resizable=0;points=[];autosize=1;strokeColor=none;fillColor=none;fontSize=50;" vertex="1" parent="1">
          <mxGeometry x="10" y="330" width="720" height="130" as="geometry" />
        </mxCell>
        <mxCell id="MvEuv22E8uVHr46733gI-94" value="&lt;div&gt;MYSQL&lt;/div&gt;&lt;div&gt;master&lt;br&gt;&lt;/div&gt;" style="strokeWidth=2;html=1;shape=mxgraph.flowchart.database;whiteSpace=wrap;fontSize=30;" vertex="1" parent="1">
          <mxGeometry x="206" y="597.46" width="130" height="150" as="geometry" />
        </mxCell>
        <mxCell id="MvEuv22E8uVHr46733gI-97" value="" style="shape=flexArrow;endArrow=classic;startArrow=classic;html=1;rounded=0;fontColor=#808080;" edge="1" parent="1">
          <mxGeometry width="100" height="100" relative="1" as="geometry">
            <mxPoint x="330" y="760" as="sourcePoint" />
            <mxPoint x="1940" y="1780" as="targetPoint" />
          </mxGeometry>
        </mxCell>
        <mxCell id="MvEuv22E8uVHr46733gI-100" value="MYSQL&lt;br&gt;slave" style="strokeWidth=2;html=1;shape=mxgraph.flowchart.database;whiteSpace=wrap;fontSize=30;" vertex="1" parent="1">
          <mxGeometry x="1963" y="1707" width="130" height="150" as="geometry" />
        </mxCell>
        <mxCell id="MvEuv22E8uVHr46733gI-101" value="" style="verticalLabelPosition=bottom;html=1;verticalAlign=top;strokeWidth=1;dashed=0;shape=mxgraph.aws3d.dashedEdgeDouble;fillColor=#000000;aspect=fixed;rounded=1;shadow=0;comic=0;fontFamily=Verdana;fontSize=12;flipV=1;" vertex="1" parent="1">
          <mxGeometry x="1205" y="1050.66" width="87" height="50" as="geometry" />
        </mxCell>
        <mxCell id="MvEuv22E8uVHr46733gI-102" value="" style="verticalLabelPosition=bottom;html=1;verticalAlign=top;strokeWidth=1;dashed=0;shape=mxgraph.aws3d.dashedEdgeDouble;fillColor=#000000;aspect=fixed;rounded=1;shadow=0;comic=0;fontFamily=Verdana;fontSize=12;flipV=1;" vertex="1" parent="1">
          <mxGeometry x="1349.59" y="1127.8100000000002" width="87" height="50" as="geometry" />
        </mxCell>
        <mxCell id="MvEuv22E8uVHr46733gI-103" value="" style="verticalLabelPosition=bottom;html=1;verticalAlign=top;strokeWidth=1;dashed=0;shape=mxgraph.aws3d.dashedEdgeDouble;fillColor=#000000;aspect=fixed;rounded=1;shadow=0;comic=0;fontFamily=Verdana;fontSize=12;flipV=1;" vertex="1" parent="1">
          <mxGeometry x="1788" y="1392.5700000000002" width="87" height="50" as="geometry" />
        </mxCell>
        <mxCell id="MvEuv22E8uVHr46733gI-104" value="" style="verticalLabelPosition=bottom;html=1;verticalAlign=top;strokeWidth=1;dashed=0;shape=mxgraph.aws3d.dashedEdgeDouble;fillColor=#000000;aspect=fixed;rounded=1;shadow=0;comic=0;fontFamily=Verdana;fontSize=12;flipV=1;" vertex="1" parent="1">
          <mxGeometry x="1904" y="1460.0000000000002" width="87" height="50" as="geometry" />
        </mxCell>
        <mxCell id="MvEuv22E8uVHr46733gI-106" value="" style="verticalLabelPosition=bottom;html=1;verticalAlign=top;strokeWidth=1;dashed=0;shape=mxgraph.aws3d.dashedEdgeDouble;fillColor=#000000;aspect=fixed;rounded=1;shadow=0;comic=0;fontFamily=Verdana;fontSize=12;flipV=1;" vertex="1" parent="1">
          <mxGeometry x="802.5" y="802.27" width="87" height="50" as="geometry" />
        </mxCell>
        <mxCell id="MvEuv22E8uVHr46733gI-109" value="" style="shape=mxgraph.cisco.servers.sip_proxy_server;html=1;pointerEvents=1;dashed=0;fillColor=#036897;strokeColor=#ffffff;strokeWidth=2;verticalLabelPosition=bottom;verticalAlign=top;align=center;outlineConnect=0;" vertex="1" parent="1">
          <mxGeometry x="20" y="1850" width="100" height="150" as="geometry" />
        </mxCell>
        <mxCell id="MvEuv22E8uVHr46733gI-110" value="" style="shape=mxgraph.cisco.servers.sip_proxy_server;html=1;pointerEvents=1;dashed=0;fillColor=#036897;strokeColor=#ffffff;strokeWidth=2;verticalLabelPosition=bottom;verticalAlign=top;align=center;outlineConnect=0;" vertex="1" parent="1">
          <mxGeometry x="200" y="1840" width="100" height="150" as="geometry" />
        </mxCell>
        <mxCell id="MvEuv22E8uVHr46733gI-111" value="" style="shape=mxgraph.cisco.servers.sip_proxy_server;html=1;pointerEvents=1;dashed=0;fillColor=#036897;strokeColor=#ffffff;strokeWidth=2;verticalLabelPosition=bottom;verticalAlign=top;align=center;outlineConnect=0;" vertex="1" parent="1">
          <mxGeometry x="390" y="1840" width="100" height="150" as="geometry" />
        </mxCell>
        <mxCell id="MvEuv22E8uVHr46733gI-113" value="VOIP Providers" style="text;html=1;align=center;verticalAlign=middle;resizable=0;points=[];autosize=1;strokeColor=none;fillColor=none;fontSize=50;" vertex="1" parent="1">
          <mxGeometry x="30" y="1770" width="370" height="70" as="geometry" />
        </mxCell>
        <mxCell id="MvEuv22E8uVHr46733gI-114" value="" style="shape=flexArrow;endArrow=classic;html=1;rounded=0;" edge="1" parent="1" source="MvEuv22E8uVHr46733gI-30">
          <mxGeometry width="50" height="50" relative="1" as="geometry">
            <mxPoint x="1030" y="1190" as="sourcePoint" />
            <mxPoint x="210" y="1750" as="targetPoint" />
          </mxGeometry>
        </mxCell>
      </root>
    </mxGraphModel>
  </diagram>
</mxfile>
